<svg version="1.1" id="Layer_1" xmlns="http://www.w3.org/2000/svg" xmlns:xlink="http://www.w3.org/1999/xlink" x="0px" y="0px"
	 width="100%" viewBox="0 0 108 68" enable-background="new 0 0 108 68" xml:space="preserve">
<path fill="#161616" opacity="1.000000" stroke="none" 
	d="
M70.000000,69.000000 
	C46.666672,69.000000 23.833342,69.000000 1.000009,69.000000 
	C1.000006,46.333340 1.000006,23.666683 1.000003,1.000018 
	C36.999985,1.000012 72.999969,1.000012 108.999969,1.000006 
	C108.999977,23.666649 108.999977,46.333298 108.999985,68.999969 
	C96.166664,69.000000 83.333336,69.000000 70.000000,69.000000 
M87.621536,39.261715 
	C83.726448,40.173115 79.831360,41.084511 75.198692,41.704967 
	C74.395668,41.013405 73.610756,39.754688 72.786476,39.728355 
	C69.197495,39.613686 65.597061,39.857609 61.108219,39.684677 
	C49.338940,39.522633 49.338940,39.522633 48.225445,42.390690 
	C49.785049,42.656525 51.303192,42.915295 52.883244,43.184616 
	C51.868023,47.400085 50.922440,51.326397 49.731792,56.270275 
	C57.787479,54.349445 54.592232,46.979824 58.211739,43.194130 
	C59.099586,43.102367 60.548233,42.952652 62.670559,43.109459 
	C61.845074,47.211632 61.019588,51.313801 60.079746,55.984253 
	C64.440414,54.871197 68.949600,57.524246 72.007690,52.853706 
	C70.085464,52.706905 68.163239,52.560104 66.241020,52.413307 
	C66.001160,51.983955 65.761307,51.554604 65.521446,51.125252 
	C66.598076,50.410130 67.589188,49.445675 68.771950,49.040012 
	C70.425774,48.472782 72.222542,48.322308 74.604782,48.508003 
	C74.644104,55.556362 77.603889,57.232391 86.519241,55.027073 
	C86.519241,55.027073 86.947182,55.006390 87.443054,55.532368 
	C93.432343,57.175999 90.895294,50.681206 93.482010,49.143597 
	C95.348495,49.143597 97.149025,49.143597 99.216629,49.143597 
	C98.913147,51.270584 98.639709,53.187008 98.204338,56.238323 
	C100.076172,55.360260 102.166924,55.016293 102.400040,54.164143 
	C103.668335,49.528038 104.478661,44.766651 105.446602,40.048382 
	C104.906242,39.811226 104.365891,39.574074 103.825531,39.336922 
	C103.096497,39.967869 101.835381,40.517250 101.724136,41.242897 
	C100.960014,46.227726 97.949814,46.640182 93.830078,45.438683 
	C94.075851,43.613689 94.310036,41.874706 94.595779,39.752949 
	C93.173058,39.752949 92.049110,39.752949 90.388687,39.364143 
	C89.737198,39.329590 89.085716,39.295033 87.621536,39.261715 
M40.497787,8.145913 
	C35.522610,8.147883 30.521780,7.864209 25.586227,8.307433 
	C23.868832,8.461660 21.390892,10.107395 20.891287,11.613111 
	C20.066111,14.100039 20.447105,17.035898 20.663975,19.755116 
	C20.689634,20.076853 22.876369,20.426203 24.056183,20.409016 
	C25.822092,20.383287 27.604042,19.767532 29.342281,19.897205 
	C32.626701,20.142221 35.884880,20.739092 39.695221,21.264357 
	C38.546082,20.203068 37.876789,19.584940 36.254436,18.086615 
	C40.286797,18.086615 43.047230,18.086687 45.807663,18.086603 
	C53.883537,18.086355 55.113613,16.920862 55.841488,8.145936 
	C51.037533,8.145936 46.266056,8.145936 40.497787,8.145913 
M19.164665,53.368534 
	C19.513338,53.721851 19.847576,54.367573 20.212801,54.385601 
	C28.720547,54.805592 37.239822,55.435020 45.732189,55.184811 
	C46.842705,55.152096 47.818272,50.539059 48.856346,48.047512 
	C47.196903,47.381641 45.573158,46.279366 43.870636,46.140083 
	C40.243725,45.843372 36.560638,46.236721 32.932873,45.945271 
	C31.601337,45.838295 30.361057,44.595474 29.079155,43.870770 
	C30.251129,42.702293 31.290464,41.339573 32.633907,40.422207 
	C33.875889,39.574116 35.550709,39.371719 36.828690,38.560204 
	C37.623940,38.055218 38.035847,36.946545 38.619801,36.108814 
	C37.506714,35.898533 36.017639,35.120098 35.340332,35.568321 
	C30.166271,38.992367 24.945539,42.412857 20.219725,46.403370 
	C18.929234,47.493073 19.273766,50.519070 19.164665,53.368534 
M43.110424,22.649857 
	C42.361740,23.747009 41.613060,24.844160 40.634136,26.278721 
	C44.456898,26.278721 48.540718,26.278721 52.624535,26.278721 
	C52.706589,26.048698 52.788639,25.818676 52.870689,25.588654 
	C49.663063,24.393505 46.455433,23.198357 43.110424,22.649857 
z"/>
<path fill="#F5C001" opacity="1.000000" stroke="none" 
	d="
M40.996181,8.145925 
	C46.266056,8.145936 51.037533,8.145936 55.841488,8.145936 
	C55.113613,16.920862 53.883537,18.086355 45.807663,18.086603 
	C43.047230,18.086687 40.286797,18.086615 36.254436,18.086615 
	C37.876789,19.584940 38.546082,20.203068 39.695221,21.264357 
	C35.884880,20.739092 32.626701,20.142221 29.342281,19.897205 
	C27.604042,19.767532 25.822092,20.383287 24.056183,20.409016 
	C22.876369,20.426203 20.689634,20.076853 20.663975,19.755116 
	C20.447105,17.035898 20.066111,14.100039 20.891287,11.613111 
	C21.390892,10.107395 23.868832,8.461660 25.586227,8.307433 
	C30.521780,7.864209 35.522610,8.147883 40.996181,8.145925 
z"/>
<path fill="#F4BE01" opacity="1.000000" stroke="none" 
	d="
M19.016308,53.012497 
	C19.273766,50.519070 18.929234,47.493073 20.219725,46.403370 
	C24.945539,42.412857 30.166271,38.992367 35.340332,35.568321 
	C36.017639,35.120098 37.506714,35.898533 38.619801,36.108814 
	C38.035847,36.946545 37.623940,38.055218 36.828690,38.560204 
	C35.550709,39.371719 33.875889,39.574116 32.633907,40.422207 
	C31.290464,41.339573 30.251129,42.702293 29.079155,43.870770 
	C30.361057,44.595474 31.601337,45.838295 32.932873,45.945271 
	C36.560638,46.236721 40.243725,45.843372 43.870636,46.140083 
	C45.573158,46.279366 47.196903,47.381641 48.856346,48.047512 
	C47.818272,50.539059 46.842705,55.152096 45.732189,55.184811 
	C37.239822,55.435020 28.720547,54.805592 20.212801,54.385601 
	C19.847576,54.367573 19.513338,53.721851 19.016308,53.012497 
z"/>
<path fill="#E9E9E9" opacity="1.000000" stroke="none" 
	d="
M62.000778,39.971268 
	C65.597061,39.857609 69.197495,39.613686 72.786476,39.728355 
	C73.610756,39.754688 74.395668,41.013405 75.597733,41.816628 
	C75.996773,41.928284 76.075127,41.975906 75.720993,41.780739 
	C75.226067,42.076324 75.085274,42.567078 74.951050,43.012856 
	C74.957603,42.967876 75.048325,42.973679 74.616257,42.865166 
	C71.805351,43.408463 68.141342,41.035908 67.284348,44.749233 
	C69.828888,46.027294 71.902161,47.068649 73.946869,48.084476 
	C73.918304,48.058952 73.958145,47.993523 73.958145,47.993523 
	C72.222542,48.322308 70.425774,48.472782 68.771950,49.040012 
	C67.589188,49.445675 66.598076,50.410130 65.521446,51.125252 
	C65.761307,51.554604 66.001160,51.983955 66.241020,52.413307 
	C68.163239,52.560104 70.085464,52.706905 72.007690,52.853706 
	C68.949600,57.524246 64.440414,54.871197 60.079746,55.984253 
	C61.019588,51.313801 61.845074,47.211632 62.332581,42.602238 
	C61.996666,41.387100 61.998722,40.679184 62.000778,39.971268 
z"/>
<path fill="#EEEEEE" opacity="1.000000" stroke="none" 
	d="
M90.925171,39.752949 
	C92.049110,39.752949 93.173058,39.752949 94.595779,39.752949 
	C94.310036,41.874706 94.075851,43.613689 93.830078,45.438683 
	C97.949814,46.640182 100.960014,46.227726 101.724136,41.242897 
	C101.835381,40.517250 103.096497,39.967869 103.825531,39.336922 
	C104.365891,39.574074 104.906242,39.811226 105.446602,40.048382 
	C104.478661,44.766651 103.668335,49.528038 102.400040,54.164143 
	C102.166924,55.016293 100.076172,55.360260 98.204338,56.238323 
	C98.639709,53.187008 98.913147,51.270584 99.216629,49.143597 
	C97.149025,49.143597 95.348495,49.143597 93.482010,49.143597 
	C90.895294,50.681206 93.432343,57.175999 87.304047,54.897720 
	C88.418411,49.426365 89.671791,44.589657 90.925171,39.752949 
z"/>
<path fill="#EEEEEE" opacity="1.000000" stroke="none" 
	d="
M86.091049,55.012306 
	C77.603889,57.232391 74.644104,55.556362 74.281464,48.250763 
	C73.958145,47.993523 73.918304,48.058952 74.326469,47.890076 
	C74.839195,46.138695 74.943756,44.556187 75.048325,42.973679 
	C75.048325,42.973679 74.957603,42.967876 75.308273,43.209709 
	C75.797676,42.959663 75.936401,42.467785 76.075119,41.975906 
	C76.075127,41.975906 75.996773,41.928284 75.966522,41.962097 
	C79.831360,41.084511 83.726448,40.173115 88.208626,39.634521 
	C88.859421,44.162079 85.745377,41.913242 84.147324,42.093594 
	C79.539520,42.613594 79.487617,46.122818 79.045807,49.311619 
	C78.548126,52.903679 81.264610,52.464970 83.555977,52.820862 
	C84.491875,52.966228 85.251328,54.247700 86.091049,55.012306 
z"/>
<path fill="#292A2B" opacity="1.000000" stroke="none" 
	d="
M86.305145,55.019691 
	C85.251328,54.247700 84.491875,52.966228 83.555977,52.820862 
	C81.264610,52.464970 78.548126,52.903679 79.045807,49.311619 
	C79.487617,46.122818 79.539520,42.613594 84.147324,42.093594 
	C85.745377,41.913242 88.859421,44.162079 88.614975,39.633904 
	C89.085716,39.295033 89.737198,39.329590 90.656929,39.558548 
	C89.671791,44.589657 88.418411,49.426365 87.056107,54.634731 
	C86.947182,55.006390 86.519241,55.027073 86.305145,55.019691 
z"/>
<path fill="#ECECEC" opacity="1.000000" stroke="none" 
	d="
M61.554497,39.827972 
	C61.998722,40.679184 61.996666,41.387100 61.995743,42.448975 
	C60.548233,42.952652 59.099586,43.102367 58.211739,43.194130 
	C54.592232,46.979824 57.787479,54.349445 49.731792,56.270275 
	C50.922440,51.326397 51.868023,47.400085 52.883244,43.184616 
	C51.303192,42.915295 49.785049,42.656525 48.225445,42.390690 
	C49.338940,39.522633 49.338940,39.522633 61.554497,39.827972 
z"/>
<path fill="#E1B003" opacity="1.000000" stroke="none" 
	d="
M43.179115,22.326532 
	C46.455433,23.198357 49.663063,24.393505 52.870689,25.588654 
	C52.788639,25.818676 52.706589,26.048698 52.624535,26.278721 
	C48.540718,26.278721 44.456898,26.278721 40.634136,26.278721 
	C41.613060,24.844160 42.361740,23.747009 43.179115,22.326532 
z"/>
<path fill="#161616" opacity="1.000000" stroke="none" 
	d="
M74.616257,42.865166 
	C74.943756,44.556187 74.839195,46.138695 74.355026,47.915604 
	C71.902161,47.068649 69.828888,46.027294 67.284348,44.749233 
	C68.141342,41.035908 71.805351,43.408463 74.616257,42.865166 
z"/>
<path fill="#161616" opacity="1.000000" stroke="none" 
	d="
M75.720985,41.780739 
	C75.936401,42.467785 75.797676,42.959663 75.301720,43.254688 
	C75.085274,42.567078 75.226067,42.076324 75.720985,41.780739 
z"/>
</svg>